<svg width="38" height="24" viewBox="0 0 38 24" fill="none" xmlns="http://www.w3.org/2000/svg">
  <path d="M7.05 4.27C7.67 3.51 8.1 2.48 7.96 1.44C7.11 1.48 6.08 2.03 5.44 2.78C4.87 3.44 4.34 4.51 4.52 5.5C5.47 5.58 6.41 5.02 7.05 4.27Z" fill="white"/>
  <path d="M12.53 13.45C12.55 11.16 14.45 10.05 14.55 9.99C13.45 8.35 11.76 8.09 11.15 8.07C9.76 7.93 8.44 8.89 7.73 8.89C7.01 8.89 5.92 8.09 4.78 8.11C3.31 8.13 1.97 8.94 1.25 10.23C-0.27 12.83 0.85 16.68 2.3 18.83C3.04 19.89 3.9 21.07 5.04 21.03C6.13 20.99 6.55 20.33 7.86 20.33C9.16 20.33 9.55 21.03 10.7 21.01C11.89 20.99 12.63 19.94 13.36 18.87C14.22 17.66 14.58 16.47 14.6 16.38C14.56 16.36 12.53 15.6 12.53 13.45Z" fill="white"/>
  <path d="M21.9639 7.15992C23.1539 7.15992 24.6939 6.47992 25.6939 5.39992C26.5739 4.43992 27.1739 3.11992 27.0139 1.83992C25.8939 1.87992 24.4539 2.51992 23.4339 3.57992C22.5339 4.47992 21.8139 5.77992 21.9939 7.07992C23.1939 7.15992 23.8539 7.17992 21.9639 7.15992Z" fill="white"/>
  <path d="M27.5999 8.40018C26.3199 7.66018 24.6599 7.14018 23.0399 7.16018C21.0199 7.18018 19.3599 8.20018 18.3599 8.20018C17.3599 8.20018 15.9999 7.20018 14.3999 7.20018C12.3399 7.24018 10.4399 8.44018 9.3999 10.2002C7.6799 13.1002 8.9399 17.8402 10.5999 20.5002C11.5599 21.9402 12.6399 23.3802 14.1599 23.3402C15.2399 23.3002 15.9999 22.5402 17.4399 22.5402C18.8799 22.5402 19.5999 23.3402 20.7399 23.3402C22.2799 23.3002 23.1799 22.0002 24.2399 20.6602C25.3999 19.0802 25.8599 17.7202 25.8799 17.5802C25.7999 17.5602 22.4399 16.3002 22.4399 12.4402C22.4399 9.16018 25.0399 7.90018 25.2599 7.74018C23.9599 5.92018 21.9999 5.96018 21.4399 5.96018C21.4399 5.96018 28.1999 8.78018 27.5999 8.40018Z" fill="white"/>
</svg>
