<?xml version="1.0" encoding="UTF-8"?>
<svg width="200" height="48" viewBox="0 0 200 48" fill="none" xmlns="http://www.w3.org/2000/svg">
  <!-- Main pill shape -->
  <rect x="2" y="2" width="196" height="44" rx="22" fill="white" stroke="#333333" stroke-width="1.5"/>

  <!-- Red half with subtle gradient -->
  <path d="M2 24C2 11.8497 11.8497 2 24 2H100V46H24C11.8497 46 2 36.1503 2 24Z" fill="url(#red-gradient)"/>

  <!-- Subtle bottom shadow -->
  <g filter="url(#shadow-bottom)">
    <rect x="2" y="2" width="196" height="44" rx="22" fill="transparent"/>
  </g>

  <!-- Subtle glass highlight at top -->
  <path d="M24 5C13.5066 5 5 13.5066 5 24C5 25.0238 5.0738 26.0274 5.2157 27.0016C6.7228 18.2135 14.5547 11.5 24 11.5H176C185.445 11.5 193.277 18.2135 194.784 27.0016C194.926 26.0274 195 25.0238 195 24C195 13.5066 186.493 5 176 5H24Z" fill="white" fill-opacity="0.3"/>

  <!-- THE text on red side -->
  <text x="54" y="28.5" font-family="'Inter', sans-serif" font-weight="700" font-size="14" letter-spacing="0.5" fill="white">THE</text>

  <!-- LIMITLESS PILL text on white side -->
  <text x="100" y="28.5" font-family="'Inter', sans-serif" font-weight="700" font-size="14" letter-spacing="0.5" fill="black">
    <tspan x="105" y="28.5">LIMITLESS PILL</tspan>
  </text>

  <!-- Definitions -->
  <defs>
    <!-- Red gradient -->
    <linearGradient id="red-gradient" x1="2" y1="24" x2="100" y2="24" gradientUnits="userSpaceOnUse">
      <stop offset="0" stop-color="#7A0808"/>
      <stop offset="1" stop-color="#AA0A0A"/>
    </linearGradient>

    <!-- Bottom shadow filter -->
    <filter id="shadow-bottom" x="0" y="12" width="200" height="36" filterUnits="userSpaceOnUse" color-interpolation-filters="sRGB">
      <feFlood flood-opacity="0" result="BackgroundImageFix"/>
      <feOffset dy="4"/>
      <feGaussianBlur stdDeviation="3"/>
      <feComposite in2="hardAlpha" operator="out"/>
      <feColorMatrix type="matrix" values="0 0 0 0 0 0 0 0 0 0 0 0 0 0 0 0 0 0 0.15 0"/>
      <feBlend mode="normal" in2="BackgroundImageFix" result="effect1_dropShadow_719_1"/>
      <feBlend mode="normal" in="SourceGraphic" in2="effect1_dropShadow_719_1" result="shape"/>
    </filter>
  </defs>
</svg>
