<?xml version="1.0" encoding="UTF-8"?>
<svg width="240" height="60" viewBox="0 0 240 60" fill="none" xmlns="http://www.w3.org/2000/svg">
  <!-- Pill Shape with subtle shadow -->
  <g filter="url(#shadow)">
    <rect x="10" y="10" width="220" height="40" rx="20" fill="#262626" />
    <rect x="12" y="12" width="216" height="36" rx="18" fill="white" />

    <!-- Red Half -->
    <path d="M12 30C12 20.0589 20.0589 12 30 12H120V48H30C20.0589 48 12 39.9411 12 30Z" fill="#940909" />

    <!-- Subtle shine effect -->
    <path d="M30 15C21.7157 15 15 21.7157 15 30C15 30.84 15.0562 31.6645 15.1642 32.47C16.3307 24.9813 22.4669 19.1667 30 19.1667H210C217.533 19.1667 223.669 24.9813 224.836 32.47C224.944 31.6645 225 30.84 225 30C225 21.7157 218.284 15 210 15H30Z" fill="white" fill-opacity="0.4" />
  </g>

  <!-- Text "THE LIMITLESS PILL" with adjusted size -->
  <text x="120" y="33" font-family="Arial, sans-serif" font-weight="900" font-size="16" text-anchor="middle" fill="black">
    <tspan x="120" y="33">THE LIMITLESS PILL</tspan>
  </text>

  <!-- Definitions -->
  <defs>
    <!-- Shadow Filter -->
    <filter id="shadow" x="0" y="0" width="240" height="60" filterUnits="userSpaceOnUse" color-interpolation-filters="sRGB">
      <feFlood flood-opacity="0" result="BackgroundImageFix" />
      <feColorMatrix in="SourceAlpha" type="matrix" values="0 0 0 0 0 0 0 0 0 0 0 0 0 0 0 0 0 0 127 0" />
      <feOffset dy="2" />
      <feGaussianBlur stdDeviation="3" />
      <feComposite in2="hardAlpha" operator="out" />
      <feColorMatrix type="matrix" values="0 0 0 0 0 0 0 0 0 0 0 0 0 0 0 0 0 0 0.3 0" />
      <feBlend mode="normal" in2="BackgroundImageFix" result="effect1_dropShadow" />
      <feBlend mode="normal" in="SourceGraphic" in2="effect1_dropShadow" result="shape" />
    </filter>
  </defs>
</svg>
