<svg xmlns="http://www.w3.org/2000/svg" width="200" height="60" fill="none" viewBox="0 0 200 60"><g filter="url(#bottom-shadow)"><rect width="180" height="40" x="10" y="10" fill="#fff" rx="20"/></g><rect width="180" height="40" x="10" y="10" fill="#fff" rx="20"/><mask id="mask0" style="mask-type:alpha" width="90" height="40" x="10" y="10" maskUnits="userSpaceOnUse"><rect width="90" height="40" x="10" y="10" fill="#fff" rx="20"/></mask><g mask="url(#mask0)"><rect width="90" height="40" x="10" y="10" fill="#940909"/></g><path fill="#fff" fill-opacity=".3" d="M30 13C21.7157 13 15 19.7157 15 28C15 28.3371 15.0134 28.6708 15.0394 29C15.5373 21.5067 22.0636 15.5 30 15.5H170C177.937 15.5 184.463 21.5067 184.961 29C184.987 28.6708 185 28.3371 185 28C185 19.7157 178.284 13 170 13H30Z"/><rect width="180" height="40" x="10" y="10" stroke="#E0E0E0" stroke-width=".5" rx="20"/><defs><filter id="bottom-shadow" width="184" height="46" x="8" y="14" color-interpolation-filters="sRGB" filterUnits="userSpaceOnUse"><feFlood flood-opacity="0" result="BackgroundImageFix"/><feOffset dy="6"/><feGaussianBlur stdDeviation="2"/><feComposite in2="hardAlpha" operator="out"/><feColorMatrix type="matrix" values="0 0 0 0 0 0 0 0 0 0 0 0 0 0 0 0 0 0 0.15 0"/><feBlend in2="BackgroundImageFix" mode="normal" result="effect1_dropShadow"/><feBlend in="SourceGraphic" in2="effect1_dropShadow" mode="normal" result="shape"/></filter></defs></svg>