<?xml version="1.0" encoding="UTF-8"?>
<svg width="160" height="36" viewBox="0 0 160 36" fill="none" xmlns="http://www.w3.org/2000/svg">
  <!-- Main pill shape with refined border -->
  <rect x="1" y="1" width="158" height="34" rx="17" fill="white" stroke="#EEEEEE" stroke-width="0.5"/>

  <!-- Red half with better color -->
  <mask id="mask0" style="mask-type:alpha" maskUnits="userSpaceOnUse" x="1" y="1" width="158" height="34">
    <rect x="1" y="1" width="158" height="34" rx="17" fill="white"/>
  </mask>
  <g mask="url(#mask0)">
    <rect x="-2" y="-1" width="86" height="38" fill="#8B0000"/>
  </g>

  <!-- Subtle bottom shadow only -->
  <rect x="1" y="18" width="158" height="17" rx="17" fill="url(#shadow-gradient)" fill-opacity="0.04"/>

  <!-- Improved typography with balanced layout -->
  <!-- Left side text: THE LIMITLESS -->
  <text x="44" y="21.5" font-family="'Helvetica Neue', Arial, sans-serif" font-weight="700" font-size="10.5" letter-spacing="0.5" text-anchor="middle" fill="white">THE LIMITLESS</text>

  <!-- Right side text: PILL -->
  <text font-family="'Helvetica Neue', Arial, sans-serif" font-weight="700" font-size="10.5" letter-spacing="0.5" fill="black">
    <tspan x="105" y="21.5">PILL</tspan>
  </text>

  <!-- Subtle glass highlight effect at top -->
  <path d="M20 4C11.7157 4 5 10.7157 5 19C5 19.3371 5.0134 19.6708 5.0394 20C5.5373 12.5067 12.0636 6.5 20 6.5H140C147.937 6.5 154.463 12.5067 154.961 20C154.987 19.6708 155 19.3371 155 19C155 10.7157 148.284 4 140 4H20Z" fill="white" fill-opacity="0.3"/>

  <!-- Definitions -->
  <defs>
    <!-- Shadow gradient - extremely subtle, bottom only -->
    <linearGradient id="shadow-gradient" x1="80" y1="18" x2="80" y2="35" gradientUnits="userSpaceOnUse">
      <stop offset="0" stop-color="transparent"/>
      <stop offset="1" stop-color="black"/>
    </linearGradient>
  </defs>
</svg>
