<?xml version="1.0" encoding="UTF-8"?>
<svg width="180" height="40" viewBox="0 0 180 40" fill="none" xmlns="http://www.w3.org/2000/svg">
  <!-- Pill main shape with very subtle border -->
  <rect x="1" y="1" width="178" height="38" rx="19" fill="white" stroke="#E0E0E0" stroke-width="1"/>

  <!-- Red half with subtle gradient - slightly darker and more premium looking -->
  <path d="M1 20C1 9.50659 9.50659 1 20 1H90V39H20C9.50659 39 1 30.4934 1 20Z" fill="url(#premium-red)"/>

  <!-- Very subtle glass effect on top -->
  <path d="M20 4C11.7157 4 5 10.7157 5 19C5 19.675 5.0419 20.3371 5.1224 20.9839C6.0132 14.0941 12.3431 8.73333 20 8.73333H160C167.657 8.73333 173.987 14.0941 174.878 20.9839C174.958 20.3371 175 19.675 175 19C175 10.7157 168.284 4 160 4H20Z" fill="white" fill-opacity="0.25"/>

  <!-- Bottom shadow - more subtle and refined -->
  <g filter="url(#premium-shadow)">
    <rect x="1" y="1" width="178" height="38" rx="19" fill="transparent"/>
  </g>

  <!-- Text content - improved typography -->
  <!-- THE text - centered in red section -->
  <text x="45" y="23.5" font-family="'Inter', 'Helvetica', sans-serif" font-weight="600" font-size="10" letter-spacing="1" text-anchor="middle" fill="white">THE</text>

  <!-- LIMITLESS PILL text - properly aligned -->
  <text font-family="'Inter', 'Helvetica', sans-serif" font-weight="600" font-size="10" letter-spacing="0.8" fill="black">
    <tspan x="100" y="23.5">LIMITLESS PILL</tspan>
  </text>

  <!-- Definitions -->
  <defs>
    <!-- Premium red gradient -->
    <linearGradient id="premium-red" x1="1" y1="20" x2="90" y2="20" gradientUnits="userSpaceOnUse">
      <stop offset="0" stop-color="#8B0000"/>
      <stop offset="1" stop-color="#940909"/>
    </linearGradient>

    <!-- Refined bottom shadow -->
    <filter id="premium-shadow" x="0" y="16" width="180" height="24" filterUnits="userSpaceOnUse" color-interpolation-filters="sRGB">
      <feFlood flood-opacity="0" result="BackgroundImageFix"/>
      <feOffset dy="2"/>
      <feGaussianBlur stdDeviation="1.5"/>
      <feComposite in2="hardAlpha" operator="out"/>
      <feColorMatrix type="matrix" values="0 0 0 0 0 0 0 0 0 0 0 0 0 0 0 0 0 0 0.1 0"/>
      <feBlend mode="normal" in2="BackgroundImageFix" result="effect1_dropShadow"/>
      <feBlend mode="normal" in="SourceGraphic" in2="effect1_dropShadow" result="shape"/>
    </filter>
  </defs>
</svg>
