<svg xmlns="http://www.w3.org/2000/svg" width="228" height="72" fill="none" viewBox="0 0 228 72"><rect width="212" height="56" x="8" y="8" fill="#fff" rx="28"/><mask id="mask0" style="mask-type:alpha" width="106" height="56" x="114" y="8" maskUnits="userSpaceOnUse"><rect width="106" height="56" x="114" y="8" fill="#fff" rx="28"/></mask><g mask="url(#mask0)"><rect width="106" height="56" x="114" y="8" fill="#FFC7C7"/></g><path fill="#fff" fill-opacity=".3" d="M36 12C23.5 12 14 21.5 14 34C14 34.672 14.0281 35.3371 14.0842 35.9937C15.0703 25.4034 23.7621 17 34.5 17H194C204.738 17 213.43 25.4034 214.416 35.9937C214.472 35.3371 214.5 34.672 214.5 34C214.5 21.5 205 12 192.5 12H36Z"/><ellipse cx="114" cy="68" fill="#000" fill-opacity=".1" rx="106" ry="4"/><text x="114" y="42" fill="#333" font-family="Arial, Helvetica, sans-serif" font-size="16" font-weight="600" text-anchor="middle"><tspan x="114" y="42">THE LIMITLESS PILL</tspan></text></svg>