<?xml version="1.0" encoding="UTF-8"?>
<svg width="200" height="60" viewBox="0 0 200 60" fill="none" xmlns="http://www.w3.org/2000/svg">
  <!-- Main pill shape with shadow effect -->
  <g filter="url(#shadow)">
    <rect x="10" y="10" width="180" height="40" rx="20" fill="white"/>
  </g>

  <!-- Red half with subtle gradient -->
  <mask id="mask0" style="mask-type:alpha" maskUnits="userSpaceOnUse" x="10" y="10" width="90" height="40">
    <rect x="10" y="10" width="90" height="40" rx="20" fill="white"/>
  </mask>
  <g mask="url(#mask0)">
    <rect x="10" y="10" width="90" height="40" fill="#940909"/>
  </g>

  <!-- Subtle glass highlight at top -->
  <path d="M30 13C21.7157 13 15 19.7157 15 28C15 28.3371 15.0134 28.6708 15.0394 29C15.5373 21.5067 22.0636 15.5 30 15.5H170C177.937 15.5 184.463 21.5067 184.961 29C184.987 28.6708 185 28.3371 185 28C185 19.7157 178.284 13 170 13H30Z" fill="white" fill-opacity="0.3"/>

  <!-- Definitions -->
  <defs>
    <!-- Shadow effect -->
    <filter id="shadow" x="0" y="4" width="200" height="56" filterUnits="userSpaceOnUse" color-interpolation-filters="sRGB">
      <feFlood flood-opacity="0" result="BackgroundImageFix"/>
      <feOffset dy="4"/>
      <feGaussianBlur stdDeviation="5"/>
      <feComposite in2="hardAlpha" operator="out"/>
      <feColorMatrix type="matrix" values="0 0 0 0 0 0 0 0 0 0 0 0 0 0 0 0 0 0 0.15 0"/>
      <feBlend mode="normal" in2="BackgroundImageFix" result="effect1_dropShadow"/>
      <feBlend mode="normal" in="SourceGraphic" in2="effect1_dropShadow" result="shape"/>
    </filter>
  </defs>
</svg>
