<?xml version="1.0" encoding="UTF-8"?>
<svg width="600" height="180" viewBox="0 0 600 180" fill="none" xmlns="http://www.w3.org/2000/svg">
  <!-- Outer Shadow -->
  <g filter="url(#shadow)">
    <!-- Pill Shape -->
    <rect x="30" y="30" width="540" height="120" rx="60" fill="#262626" />

    <!-- Pill Inner -->
    <rect x="35" y="35" width="530" height="110" rx="55" fill="white" />

    <!-- Red Half -->
    <path d="M35 90C35 59.6243 59.6243 35 90 35H300V145H90C59.6243 145 35 120.376 35 90Z" fill="#940909" />

    <!-- Reflection/Shine Effect -->
    <path d="M90 40C62.3857 40 40 62.3857 40 90C40 92.0513 40.1354 94.0728 40.3995 96.0563C42.1692 71.0278 63.8506 51.25 90 51.25H510C536.149 51.25 557.831 71.0278 559.6 96.0563C559.865 94.0728 560 92.0513 560 90C560 62.3857 537.614 40 510 40H90Z" fill="white" fill-opacity="0.4" />
  </g>

  <!-- Text "THE" on red part -->
  <text x="165" y="102" font-family="Arial, sans-serif" font-weight="900" font-size="48" text-anchor="middle" fill="black">
    <tspan x="165" y="102">THE</tspan>
  </text>

  <!-- Text "LIMITLESS PILL" on white part -->
  <text font-family="Arial, sans-serif" font-weight="900" font-size="48" fill="black">
    <tspan x="315" y="102">LIMITLESS PILL</tspan>
  </text>

  <!-- Definitions -->
  <defs>
    <!-- Shadow Filter -->
    <filter id="shadow" x="0" y="0" width="600" height="180" filterUnits="userSpaceOnUse" color-interpolation-filters="sRGB">
      <feFlood flood-opacity="0" result="BackgroundImageFix" />
      <feColorMatrix in="SourceAlpha" type="matrix" values="0 0 0 0 0 0 0 0 0 0 0 0 0 0 0 0 0 0 127 0" />
      <feOffset dy="5" />
      <feGaussianBlur stdDeviation="10" />
      <feComposite in2="hardAlpha" operator="out" />
      <feColorMatrix type="matrix" values="0 0 0 0 0 0 0 0 0 0 0 0 0 0 0 0 0 0 0.35 0" />
      <feBlend mode="normal" in2="BackgroundImageFix" result="effect1_dropShadow" />
      <feBlend mode="normal" in="SourceGraphic" in2="effect1_dropShadow" result="shape" />
    </filter>
  </defs>
</svg>
