<?xml version="1.0" encoding="UTF-8"?>
<svg width="500" height="150" viewBox="0 0 500 150" fill="none" xmlns="http://www.w3.org/2000/svg">
  <!-- Main Pill Outline with shadow effect -->
  <g filter="url(#shadow)">
    <rect x="15" y="15" width="470" height="120" rx="60" fill="#333333" />
    <rect x="20" y="20" width="460" height="110" rx="55" fill="white" />
  </g>

  <!-- Red Left Side of Pill -->
  <path d="M20 75C20 44.6243 44.6243 20 75 20H250V130H75C44.6243 130 20 105.376 20 75Z" fill="#940909" />

  <!-- Shine effect on top -->
  <path d="M75 25C48.4903 25 27 46.4903 27 73V77C27 50.4903 48.4903 29 75 29H425C451.51 29 473 50.4903 473 77V73C473 46.4903 451.51 25 425 25H75Z" fill="white" fill-opacity="0.3" />

  <!-- Text "THE" on red part -->
  <text x="125" y="85" font-family="Arial, sans-serif" font-weight="900" font-size="45" text-anchor="middle" fill="black">
    <tspan x="125" y="85">THE</tspan>
  </text>

  <!-- Text "LIMITLESS PILL" on white part -->
  <text font-family="Arial, sans-serif" font-weight="900" font-size="45" fill="black">
    <tspan x="260" y="85">LIMITLESS PILL</tspan>
  </text>

  <!-- Definitions -->
  <defs>
    <!-- Shadow Filter -->
    <filter id="shadow" x="0" y="0" width="500" height="150" filterUnits="userSpaceOnUse" color-interpolation-filters="sRGB">
      <feFlood flood-opacity="0" result="BackgroundImageFix" />
      <feColorMatrix in="SourceAlpha" type="matrix" values="0 0 0 0 0 0 0 0 0 0 0 0 0 0 0 0 0 0 127 0" />
      <feOffset dy="4" />
      <feGaussianBlur stdDeviation="7" />
      <feComposite in2="hardAlpha" operator="out" />
      <feColorMatrix type="matrix" values="0 0 0 0 0 0 0 0 0 0 0 0 0 0 0 0 0 0 0.3 0" />
      <feBlend mode="normal" in2="BackgroundImageFix" result="effect1_dropShadow" />
      <feBlend mode="normal" in="SourceGraphic" in2="effect1_dropShadow" result="shape" />
    </filter>
  </defs>
</svg>
