<?xml version="1.0" encoding="UTF-8"?>
<svg width="200" height="60" viewBox="0 0 200 60" fill="none" xmlns="http://www.w3.org/2000/svg">
  <!-- Bottom 3D edge for white half -->
  <path d="M100 48C120 48 150 48 170 48C180 48 185 44 185 34C185 34 185 35 185 35C185 45 180 50 170 50C150 50 120 50 100 50C100 50 100 48 100 48Z" fill="#DDDDDD"/>

  <!-- Bottom 3D edge for red half -->
  <path d="M15 35C15 35 15 34 15 34C15 44 20 48 30 48C50 48 80 48 100 48C100 48 100 50 100 50C80 50 50 50 30 50C20 50 15 45 15 35Z" fill="#7A0707"/>

  <!-- Main pill top surface -->
  <rect x="15" y="10" width="170" height="38" rx="19" fill="white"/>

  <!-- Red half -->
  <mask id="mask0" style="mask-type:alpha" maskUnits="userSpaceOnUse" x="15" y="10" width="85" height="38">
    <rect x="15" y="10" width="85" height="38" rx="19" fill="white"/>
  </mask>
  <g mask="url(#mask0)">
    <rect x="15" y="10" width="85" height="38" fill="#940909"/>
  </g>

  <!-- Subtle top highlight -->
  <path d="M34 14C25.7157 14 19 20.7157 19 29C19 29.3371 19.0134 29.6708 19.0394 30C19.5373 22.5067 26.0636 16.5 34 16.5H166C173.937 16.5 180.463 22.5067 181.961 30C180.987 28.6708 181 29.3371 181 29C181 20.7157 174.284 14 166 14H34Z" fill="white" fill-opacity="0.2"/>
</svg>
