<?xml version="1.0" encoding="UTF-8"?>
<svg width="200" height="60" viewBox="0 0 200 60" fill="none" xmlns="http://www.w3.org/2000/svg">
  <!-- Bottom shadow for depth -->
  <ellipse cx="100" cy="53" rx="80" ry="4" fill="black" fill-opacity="0.15"/>

  <!-- Main pill top surface -->
  <rect x="15" y="10" width="170" height="37" rx="18.5" fill="white"/>

  <!-- Red half -->
  <mask id="mask0" style="mask-type:alpha" maskUnits="userSpaceOnUse" x="15" y="10" width="85" height="37">
    <rect x="15" y="10" width="85" height="37" rx="18.5" fill="white"/>
  </mask>
  <g mask="url(#mask0)">
    <rect x="15" y="10" width="85" height="37" fill="#940909"/>
  </g>

  <!-- Bottom 3D edge for white half (subtle) - NO OUTLINE -->
  <path d="M100 47C120 47 150 47 170 47C180 47 185 43 185 33C185 33 185 34 185 34C185 44 180 49 170 49C150 49 120 49 100 49C100 49 100 47 100 47Z" fill="#EEEEEE"/>

  <!-- Bottom 3D edge for red half (subtle) - NO OUTLINE -->
  <path d="M15 34C15 34 15 33 15 33C15 43 20 47 30 47C50 47 80 47 100 47C100 47 100 49 100 49C80 49 50 49 30 49C20 49 15 44 15 34Z" fill="#7A0707"/>

  <!-- Subtle top highlight (3D effect at top) -->
  <path d="M34 13C25.7157 13 19 19.7157 19 28C19 28.3371 19.0134 28.6708 19.0394 29C19.5373 21.5067 26.0636 15.5 34 15.5H166C173.937 15.5 180.463 21.5067 180.961 29C180.987 28.6708 181 28.3371 181 28C181 19.7157 174.284 13 166 13H34Z" fill="white" fill-opacity="0.4"/>

  <!-- Very subtle shine effect on red side -->
  <path d="M30 15C21.7157 15 15 21.7157 15 30C15 30.84 15.0562 31.6645 15.1642 32.47C16.3307 24.9813 22.4669 19.1667 30 19.1667H80C85 19.1667 90 25 90 30C90 28 85 17 75 17C65 17 50 17 30 15Z" fill="#AB0A0A" fill-opacity="0.3"/>

  <!-- Very subtle gradient overlay on white half -->
  <mask id="mask1" style="mask-type:alpha" maskUnits="userSpaceOnUse" x="100" y="10" width="85" height="37">
    <rect x="100" y="10" width="85" height="37" rx="18.5" fill="white"/>
  </mask>
  <g mask="url(#mask1)">
    <rect x="100" y="10" width="85" height="37" fill="url(#white-gradient)"/>
  </g>

  <!-- Definitions -->
  <defs>
    <!-- White gradient for subtle depth -->
    <linearGradient id="white-gradient" x1="142.5" y1="10" x2="142.5" y2="47" gradientUnits="userSpaceOnUse">
      <stop offset="0" stop-color="white"/>
      <stop offset="1" stop-color="#F8F8F8"/>
    </linearGradient>
  </defs>
</svg>
