<svg width="24" height="24" viewBox="0 0 24 24" fill="none" xmlns="http://www.w3.org/2000/svg">
  <path d="M20.1092 7.12505C20.1092 9.43755 18.9842 11.1375 16.9217 11.1375H15.2467C14.8092 11.1375 14.4592 11.4875 14.3717 11.925L13.6717 16.2C13.6217 16.5 13.3717 16.725 13.0717 16.725H9.94668C9.60918 16.725 9.35918 16.4625 9.40918 16.125L11.5967 3.30005C11.6467 3.00005 11.9092 2.80005 12.2092 2.80005H17.5967C19.1092 2.77505 20.1092 4.05005 20.1092 7.12505Z" fill="#253B80"/>
  <path d="M8.88412 7.12505C8.88412 9.43755 7.75912 11.1375 5.69662 11.1375H4.02162C3.58412 11.1375 3.23412 11.4875 3.14662 11.925L2.44662 16.2C2.39662 16.5 2.14662 16.725 1.84662 16.725H1.12162C0.784122 16.725 0.534122 16.4625 0.584122 16.125L2.77162 3.30005C2.82162 3.00005 3.08412 2.80005 3.38412 2.80005H8.76912C10.2816 2.77505 8.88412 4.05005 8.88412 7.12505Z" fill="#179BD7"/>
  <path d="M8.88412 7.125C8.88412 9.4375 7.75912 11.1375 5.69662 11.1375H4.02162C3.58412 11.1375 3.23412 11.4875 3.14662 11.925L2.44662 16.2C2.39662 16.5 2.14662 16.725 1.84662 16.725H4.69662C5.03412 16.725 5.28412 16.4875 5.33412 16.15L5.37162 15.9375L5.78412 13.3875L5.83412 13.125C5.88412 12.7875 6.13412 12.55 6.47162 12.55H6.88412C9.36912 12.55 11.3191 11.7 11.8941 8.7375C12.1316 7.4875 11.9066 6.45 11.2191 5.725C10.8191 5.2875 10.2941 5 9.67162 5H9.66912C9.03412 5 7.92162 5 7.01912 5.85C6.11662 6.7 5.87162 8.0625 6.04662 9.15L6.04912 9.15C6.09912 8.775 6.18412 8.4125 6.31912 8.075C6.42912 7.8 6.56912 7.55 6.73412 7.3375C6.89912 7.125 7.08412 6.9375 7.29912 6.775C7.51412 6.6125 7.74412 6.4875 7.99412 6.375C8.24412 6.2625 8.51162 6.175 8.79662 6.1125C8.82662 6.1125 8.85412 6.1 8.88412 6.1V7.125Z" fill="#222D65"/>
  <path d="M20.1092 7.12505C20.1092 9.43755 18.9842 11.1375 16.9217 11.1375H15.2467C14.8092 11.1375 14.4592 11.4875 14.3717 11.925L13.6717 16.2C13.6217 16.5 13.3717 16.725 13.0717 16.725H15.9217C16.2592 16.725 16.5092 16.4875 16.5592 16.15L16.5967 15.9375L17.0092 13.3875L17.0592 13.125C17.1092 12.7875 17.3592 12.55 17.6967 12.55H18.1092C20.5942 12.55 22.5442 11.7 23.1192 8.7375C23.3567 7.4875 23.1317 6.45 22.4442 5.725C22.0442 5.2875 21.5192 5 20.8967 5H20.8942C20.2592 5 19.1467 5 18.2442 5.85C17.3417 6.7 17.0967 8.0625 17.2717 9.15L17.2742 9.15C17.3242 8.775 17.4092 8.4125 17.5442 8.075C17.6542 7.8 17.7942 7.55 17.9592 7.3375C18.1242 7.125 18.3092 6.9375 18.5242 6.775C18.7392 6.6125 18.9692 6.4875 19.2192 6.375C19.4692 6.2625 19.7367 6.175 20.0217 6.1125C20.0517 6.1125 20.0792 6.1 20.1092 6.1V7.12505Z" fill="#253B80"/>
</svg>
