<svg width="50" height="16" viewBox="0 0 50 16" fill="none" xmlns="http://www.w3.org/2000/svg">
  <path d="M19.1367 1.37744L12.7566 14.6226H8.65723L5.51252 3.91183C5.33364 3.33321 5.17989 3.1 4.68372 2.82694C3.84519 2.39158 2.41003 1.98134 1.19922 1.74315L1.30774 1.37744H7.92553C8.51402 1.37744 9.04907 1.76255 9.18271 2.46129L10.8063 10.156L14.6875 1.37744H19.1367ZM33.8638 10.1261C33.8786 6.18734 28.3291 5.98389 28.358 4.1793C28.3722 3.61081 28.9036 3.00706 30.0577 2.84834C30.5964 2.77183 31.8639 2.70544 33.3031 3.3193L33.9773 1.94001C33.1665 1.65682 32.1242 1.38379 30.8428 1.38379C26.6649 1.38379 23.8228 3.49257 23.8086 6.54241C23.7944 8.82166 25.8787 10.0877 27.4736 10.8411C29.1113 11.6093 29.6571 12.0893 29.6429 12.7583C29.6288 13.7484 28.444 14.1987 27.3464 14.2139C25.4328 14.2291 24.2668 13.7035 23.3256 13.3332L22.624 14.7875C23.5652 15.1579 25.2602 15.4712 27.0261 15.4864C31.4969 15.4864 34.3121 13.3938 34.3263 10.1261H33.8638ZM43.9051 14.6224H47.8141L44.3115 1.37744H41.0208C40.4894 1.37744 40.0431 1.70789 39.8782 2.2009L34.0801 14.6224H38.53L39.2741 12.5449H43.4131L43.9051 14.6224ZM40.2782 10.3025L42.0304 5.46063L43.0427 10.3025H40.2782ZM26.0594 1.37744L22.4305 14.6224H18.1982L21.8272 1.37744H26.0594Z" fill="white"/>
</svg>
